<svg width="968" height="100" viewBox="0 0 968 100" fill="none" xmlns="http://www.w3.org/2000/svg">
<path d="M484.525 51.328C483.421 51.328 482.509 50.944 481.789 50.176C481.069 49.408 480.709 48.472 480.709 47.368C480.709 46.24 481.069 45.304 481.789 44.56C482.509 43.792 483.421 43.408 484.525 43.408C485.629 43.408 486.541 43.792 487.261 44.56C487.981 45.304 488.341 46.24 488.341 47.368C488.341 48.472 487.981 49.408 487.261 50.176C486.541 50.944 485.629 51.328 484.525 51.328ZM481.393 72.172L480.097 68.752C481.657 68.2 482.845 67.468 483.661 66.556C484.477 65.644 484.873 64.672 484.849 63.64L484.777 59.428L486.793 62.956C486.481 63.22 486.133 63.424 485.749 63.568C485.365 63.688 484.957 63.748 484.525 63.748C483.541 63.748 482.653 63.436 481.861 62.812C481.093 62.188 480.709 61.3 480.709 60.148C480.709 59.068 481.093 58.204 481.861 57.556C482.653 56.884 483.601 56.548 484.705 56.548C486.121 56.548 487.201 57.076 487.945 58.132C488.689 59.188 489.061 60.652 489.061 62.524C489.061 64.852 488.401 66.844 487.081 68.5C485.785 70.18 483.889 71.404 481.393 72.172Z" fill="white"/>
<circle cx="484" cy="57" r="27" fill="white" fill-opacity="0.5"/>
<line y1="55.5" x2="432" y2="55.5" stroke="white" stroke-width="3"/>
<line x1="536" y1="55.5" x2="968" y2="55.5" stroke="white" stroke-width="3"/>
</svg>
