<svg width="39" height="39" viewBox="0 0 39 39" fill="none" xmlns="http://www.w3.org/2000/svg">
<path d="M38 35.6508V15.6825C38 15.3178 37.9164 14.9581 37.7559 14.6319C37.5953 14.3057 37.3622 14.022 37.075 13.8032L20.8875 1.46984C20.4872 1.16486 20.0004 1 19.5 1C18.9996 1 18.5128 1.16486 18.1125 1.46984L1.925 13.8032C1.6378 14.022 1.40469 14.3057 1.24414 14.6319C1.08359 14.9581 1 15.3178 1 15.6825V35.6508C1 36.2738 1.24364 36.8714 1.67732 37.3119C2.11099 37.7525 2.69919 38 3.3125 38H12.5625C13.1758 38 13.764 37.7525 14.1977 37.3119C14.6314 36.8714 14.875 36.2738 14.875 35.6508V28.6032C14.875 27.9801 15.1186 27.3826 15.5523 26.942C15.986 26.5015 16.5742 26.254 17.1875 26.254H21.8125C22.4258 26.254 23.014 26.5015 23.4477 26.942C23.8814 27.3826 24.125 27.9801 24.125 28.6032V35.6508C24.125 36.2738 24.3686 36.8714 24.8023 37.3119C25.236 37.7525 25.8242 38 26.4375 38H35.6875C36.3008 38 36.889 37.7525 37.3227 37.3119C37.7564 36.8714 38 36.2738 38 35.6508Z" fill="white" stroke="white" stroke-width="1.8" stroke-linecap="round" stroke-linejoin="round"/>
</svg>
