<svg width="963" height="100" viewBox="0 0 963 100" fill="none" xmlns="http://www.w3.org/2000/svg">
<path d="M482.525 51.328C481.421 51.328 480.509 50.944 479.789 50.176C479.069 49.408 478.709 48.472 478.709 47.368C478.709 46.24 479.069 45.304 479.789 44.56C480.509 43.792 481.421 43.408 482.525 43.408C483.629 43.408 484.541 43.792 485.261 44.56C485.981 45.304 486.341 46.24 486.341 47.368C486.341 48.472 485.981 49.408 485.261 50.176C484.541 50.944 483.629 51.328 482.525 51.328ZM479.393 72.172L478.097 68.752C479.657 68.2 480.845 67.468 481.661 66.556C482.477 65.644 482.873 64.672 482.849 63.64L482.777 59.428L484.793 62.956C484.481 63.22 484.133 63.424 483.749 63.568C483.365 63.688 482.957 63.748 482.525 63.748C481.541 63.748 480.653 63.436 479.861 62.812C479.093 62.188 478.709 61.3 478.709 60.148C478.709 59.068 479.093 58.204 479.861 57.556C480.653 56.884 481.601 56.548 482.705 56.548C484.121 56.548 485.201 57.076 485.945 58.132C486.689 59.188 487.061 60.652 487.061 62.524C487.061 64.852 486.401 66.844 485.081 68.5C483.785 70.18 481.889 71.404 479.393 72.172Z" fill="white"/>
<circle cx="482" cy="57" r="27" fill="white" fill-opacity="0.5"/>
<line x1="540" y1="56.9546" x2="963" y2="56.9546" stroke="white" stroke-width="3"/>
<line y1="56.9546" x2="432" y2="56.9546" stroke="white" stroke-width="3"/>
</svg>
