<svg width="2414" height="1131" viewBox="0 0 2414 1131" fill="none" xmlns="http://www.w3.org/2000/svg">
<rect width="2414" height="1131" fill="#D9D9D9"/>
<path d="M105.722 93.9091C105.338 90.6705 103.783 88.1562 101.055 86.3665C98.3281 84.5767 94.983 83.6818 91.0199 83.6818C88.1222 83.6818 85.5866 84.1506 83.4134 85.0881C81.2614 86.0256 79.5781 87.3146 78.3636 88.9553C77.1705 90.5959 76.5739 92.4602 76.5739 94.5483C76.5739 96.2955 76.9893 97.7976 77.8203 99.0547C78.6726 100.29 79.7592 101.324 81.0803 102.155C82.4013 102.964 83.7862 103.636 85.2351 104.168C86.6839 104.68 88.0156 105.095 89.2301 105.415L95.8778 107.205C97.5824 107.652 99.4787 108.27 101.567 109.058C103.676 109.847 105.69 110.923 107.607 112.286C109.546 113.629 111.144 115.354 112.401 117.464C113.658 119.573 114.287 122.162 114.287 125.23C114.287 128.767 113.36 131.963 111.506 134.818C109.674 137.673 106.989 139.942 103.452 141.626C99.9368 143.309 95.6648 144.151 90.6364 144.151C85.9489 144.151 81.8899 143.394 78.4595 141.881C75.0504 140.369 72.3658 138.259 70.4055 135.553C68.4666 132.847 67.3693 129.705 67.1136 126.125H75.2955C75.5085 128.597 76.3395 130.642 77.7884 132.261C79.2585 133.859 81.1122 135.053 83.3494 135.841C85.608 136.608 88.0369 136.991 90.6364 136.991C93.6619 136.991 96.3786 136.501 98.7862 135.521C101.194 134.52 103.101 133.135 104.507 131.366C105.913 129.577 106.616 127.489 106.616 125.102C106.616 122.929 106.009 121.161 104.795 119.797C103.58 118.433 101.982 117.325 100.001 116.473C98.0192 115.621 95.8778 114.875 93.5767 114.236L85.5227 111.935C80.4091 110.464 76.3608 108.366 73.3778 105.638C70.3949 102.911 68.9034 99.3423 68.9034 94.9318C68.9034 91.267 69.8942 88.071 71.8757 85.3438C73.8786 82.5952 76.5632 80.4645 79.9297 78.9517C83.3175 77.4176 87.0994 76.6506 91.2756 76.6506C95.4943 76.6506 99.2443 77.407 102.526 78.9197C105.807 80.4112 108.406 82.4567 110.324 85.0561C112.263 87.6555 113.286 90.6065 113.392 93.9091H105.722ZM127.319 143V77.5455H135.245V110.017H136.012L165.415 77.5455H175.77L148.285 107.077L175.77 143H166.182L143.427 112.574L135.245 121.778V143H127.319ZM193.956 77.5455V143H186.03V77.5455H193.956ZM209.848 143V77.5455H217.774V135.969H248.2V143H209.848ZM260.473 143V77.5455H268.399V135.969H298.825V143H260.473Z" fill="#47B0A8"/>
<path d="M174.031 266.5H169.188C168.901 265.107 168.4 263.883 167.684 262.828C166.98 261.773 166.121 260.888 165.105 260.172C164.103 259.443 162.99 258.896 161.766 258.531C160.542 258.167 159.266 257.984 157.938 257.984C155.516 257.984 153.322 258.596 151.355 259.82C149.402 261.044 147.846 262.848 146.688 265.23C145.542 267.613 144.969 270.536 144.969 274C144.969 277.464 145.542 280.387 146.688 282.77C147.846 285.152 149.402 286.956 151.355 288.18C153.322 289.404 155.516 290.016 157.938 290.016C159.266 290.016 160.542 289.833 161.766 289.469C162.99 289.104 164.103 288.564 165.105 287.848C166.121 287.118 166.98 286.227 167.684 285.172C168.4 284.104 168.901 282.88 169.188 281.5H174.031C173.667 283.544 173.003 285.374 172.039 286.988C171.076 288.603 169.878 289.977 168.445 291.109C167.013 292.229 165.405 293.082 163.621 293.668C161.85 294.254 159.956 294.547 157.938 294.547C154.526 294.547 151.492 293.714 148.836 292.047C146.18 290.38 144.09 288.01 142.566 284.937C141.043 281.865 140.281 278.219 140.281 274C140.281 269.781 141.043 266.135 142.566 263.062C144.09 259.99 146.18 257.62 148.836 255.953C151.492 254.286 154.526 253.453 157.938 253.453C159.956 253.453 161.85 253.746 163.621 254.332C165.405 254.918 167.013 255.777 168.445 256.91C169.878 258.03 171.076 259.397 172.039 261.012C173.003 262.613 173.667 264.443 174.031 266.5ZM203.733 264C203.499 262.021 202.549 260.484 200.882 259.391C199.215 258.297 197.171 257.75 194.749 257.75C192.978 257.75 191.429 258.036 190.101 258.609C188.785 259.182 187.757 259.97 187.015 260.973C186.285 261.975 185.921 263.115 185.921 264.391C185.921 265.458 186.175 266.376 186.683 267.145C187.203 267.9 187.868 268.531 188.675 269.039C189.482 269.534 190.328 269.944 191.214 270.27C192.099 270.582 192.913 270.836 193.655 271.031L197.718 272.125C198.759 272.398 199.918 272.776 201.194 273.258C202.483 273.74 203.714 274.397 204.886 275.23C206.071 276.051 207.047 277.105 207.815 278.395C208.584 279.684 208.968 281.266 208.968 283.141C208.968 285.302 208.401 287.255 207.269 289C206.149 290.745 204.508 292.132 202.347 293.16C200.198 294.189 197.588 294.703 194.515 294.703C191.65 294.703 189.17 294.241 187.073 293.316C184.99 292.392 183.349 291.103 182.151 289.449C180.966 287.796 180.296 285.875 180.14 283.688H185.14C185.27 285.198 185.778 286.448 186.663 287.437C187.562 288.414 188.694 289.143 190.062 289.625C191.442 290.094 192.926 290.328 194.515 290.328C196.364 290.328 198.024 290.029 199.495 289.43C200.966 288.818 202.132 287.971 202.991 286.891C203.851 285.797 204.28 284.521 204.28 283.062C204.28 281.734 203.909 280.654 203.167 279.82C202.425 278.987 201.448 278.31 200.237 277.789C199.026 277.268 197.718 276.812 196.312 276.422L191.39 275.016C188.265 274.117 185.791 272.835 183.968 271.168C182.145 269.501 181.233 267.32 181.233 264.625C181.233 262.385 181.839 260.432 183.05 258.766C184.274 257.086 185.914 255.784 187.972 254.859C190.042 253.922 192.353 253.453 194.905 253.453C197.483 253.453 199.775 253.915 201.78 254.84C203.785 255.751 205.374 257.001 206.546 258.59C207.731 260.178 208.356 261.982 208.421 264H203.733ZM238.807 264C238.572 262.021 237.622 260.484 235.955 259.391C234.288 258.297 232.244 257.75 229.822 257.75C228.051 257.75 226.502 258.036 225.174 258.609C223.859 259.182 222.83 259.97 222.088 260.973C221.359 261.975 220.994 263.115 220.994 264.391C220.994 265.458 221.248 266.376 221.756 267.145C222.277 267.9 222.941 268.531 223.748 269.039C224.555 269.534 225.402 269.944 226.287 270.27C227.173 270.582 227.986 270.836 228.729 271.031L232.791 272.125C233.833 272.398 234.992 272.776 236.268 273.258C237.557 273.74 238.787 274.397 239.959 275.23C241.144 276.051 242.12 277.105 242.889 278.395C243.657 279.684 244.041 281.266 244.041 283.141C244.041 285.302 243.475 287.255 242.342 289C241.222 290.745 239.581 292.132 237.42 293.16C235.271 294.189 232.661 294.703 229.588 294.703C226.723 294.703 224.243 294.241 222.146 293.316C220.063 292.392 218.423 291.103 217.225 289.449C216.04 287.796 215.369 285.875 215.213 283.688H220.213C220.343 285.198 220.851 286.448 221.736 287.437C222.635 288.414 223.768 289.143 225.135 289.625C226.515 290.094 227.999 290.328 229.588 290.328C231.437 290.328 233.097 290.029 234.568 289.43C236.04 288.818 237.205 287.971 238.064 286.891C238.924 285.797 239.354 284.521 239.354 283.062C239.354 281.734 238.982 280.654 238.24 279.82C237.498 278.987 236.521 278.31 235.311 277.789C234.1 277.268 232.791 276.812 231.385 276.422L226.463 275.016C223.338 274.117 220.864 272.835 219.041 271.168C217.218 269.501 216.307 267.32 216.307 264.625C216.307 262.385 216.912 260.432 218.123 258.766C219.347 257.086 220.988 255.784 223.045 254.859C225.115 253.922 227.426 253.453 229.979 253.453C232.557 253.453 234.848 253.915 236.854 254.84C238.859 255.751 240.447 257.001 241.619 258.59C242.804 260.178 243.429 261.982 243.494 264H238.807Z" fill="black"/>
<path d="M145.656 842.297V838H175.656V842.297H163.078V878H158.234V842.297H145.656ZM180.1 878H175.021L189.709 838H194.709L209.396 878H204.318L192.365 844.328H192.053L180.1 878ZM181.975 862.375H202.443V866.672H181.975V862.375ZM220.471 838V878H215.627V838H220.471ZM230.183 878V838H235.026V873.703H253.62V878H230.183ZM268.386 878L257.448 838H262.37L270.729 870.578H271.12L279.636 838H285.104L293.62 870.578H294.011L302.37 838H307.292L296.354 878H291.354L282.526 846.125H282.214L273.386 878H268.386ZM318.171 838V878H313.327V838H318.171ZM359.602 838V878H354.914L333.117 846.594H332.727V878H327.883V838H332.57L354.445 869.484H354.836V838H359.602ZM381.638 878H369.294V838H382.185C386.065 838 389.385 838.801 392.146 840.402C394.906 841.991 397.022 844.276 398.493 847.258C399.965 850.227 400.7 853.781 400.7 857.922C400.7 862.089 399.958 865.676 398.474 868.684C396.989 871.678 394.828 873.983 391.989 875.598C389.151 877.199 385.7 878 381.638 878ZM374.138 873.703H381.325C384.632 873.703 387.373 873.065 389.548 871.789C391.722 870.513 393.343 868.697 394.411 866.34C395.479 863.983 396.013 861.177 396.013 857.922C396.013 854.693 395.485 851.913 394.431 849.582C393.376 847.238 391.8 845.441 389.704 844.191C387.608 842.928 384.997 842.297 381.872 842.297H374.138V873.703ZM456.481 850.5H451.638C451.351 849.107 450.85 847.883 450.134 846.828C449.431 845.773 448.571 844.888 447.556 844.172C446.553 843.443 445.44 842.896 444.216 842.531C442.992 842.167 441.716 841.984 440.388 841.984C437.966 841.984 435.772 842.596 433.806 843.82C431.853 845.044 430.297 846.848 429.138 849.23C427.992 851.613 427.419 854.536 427.419 858C427.419 861.464 427.992 864.387 429.138 866.77C430.297 869.152 431.853 870.956 433.806 872.18C435.772 873.404 437.966 874.016 440.388 874.016C441.716 874.016 442.992 873.833 444.216 873.469C445.44 873.104 446.553 872.564 447.556 871.848C448.571 871.118 449.431 870.227 450.134 869.172C450.85 868.104 451.351 866.88 451.638 865.5H456.481C456.117 867.544 455.453 869.374 454.489 870.988C453.526 872.603 452.328 873.977 450.896 875.109C449.463 876.229 447.855 877.082 446.071 877.668C444.3 878.254 442.406 878.547 440.388 878.547C436.976 878.547 433.942 877.714 431.286 876.047C428.63 874.38 426.54 872.01 425.017 868.937C423.493 865.865 422.731 862.219 422.731 858C422.731 853.781 423.493 850.135 425.017 847.062C426.54 843.99 428.63 841.62 431.286 839.953C433.942 838.286 436.976 837.453 440.388 837.453C442.406 837.453 444.3 837.746 446.071 838.332C447.855 838.918 449.463 839.777 450.896 840.91C452.328 842.03 453.526 843.397 454.489 845.012C455.453 846.613 456.117 848.443 456.481 850.5ZM486.184 848C485.949 846.021 484.999 844.484 483.332 843.391C481.665 842.297 479.621 841.75 477.199 841.75C475.428 841.75 473.879 842.036 472.551 842.609C471.236 843.182 470.207 843.97 469.465 844.973C468.736 845.975 468.371 847.115 468.371 848.391C468.371 849.458 468.625 850.376 469.133 851.145C469.654 851.9 470.318 852.531 471.125 853.039C471.932 853.534 472.779 853.944 473.664 854.27C474.549 854.582 475.363 854.836 476.105 855.031L480.168 856.125C481.21 856.398 482.368 856.776 483.645 857.258C484.934 857.74 486.164 858.397 487.336 859.23C488.521 860.051 489.497 861.105 490.266 862.395C491.034 863.684 491.418 865.266 491.418 867.141C491.418 869.302 490.852 871.255 489.719 873C488.599 874.745 486.958 876.132 484.797 877.16C482.648 878.189 480.038 878.703 476.965 878.703C474.1 878.703 471.62 878.241 469.523 877.316C467.44 876.392 465.799 875.103 464.602 873.449C463.417 871.796 462.746 869.875 462.59 867.688H467.59C467.72 869.198 468.228 870.448 469.113 871.437C470.012 872.414 471.145 873.143 472.512 873.625C473.892 874.094 475.376 874.328 476.965 874.328C478.814 874.328 480.474 874.029 481.945 873.43C483.417 872.818 484.582 871.971 485.441 870.891C486.301 869.797 486.73 868.521 486.73 867.062C486.73 865.734 486.359 864.654 485.617 863.82C484.875 862.987 483.898 862.31 482.688 861.789C481.477 861.268 480.168 860.812 478.762 860.422L473.84 859.016C470.715 858.117 468.241 856.835 466.418 855.168C464.595 853.501 463.684 851.32 463.684 848.625C463.684 846.385 464.289 844.432 465.5 842.766C466.724 841.086 468.365 839.784 470.422 838.859C472.492 837.922 474.803 837.453 477.355 837.453C479.934 837.453 482.225 837.915 484.23 838.84C486.236 839.751 487.824 841.001 488.996 842.59C490.181 844.178 490.806 845.982 490.871 848H486.184ZM521.257 848C521.022 846.021 520.072 844.484 518.405 843.391C516.739 842.297 514.694 841.75 512.272 841.75C510.502 841.75 508.952 842.036 507.624 842.609C506.309 843.182 505.28 843.97 504.538 844.973C503.809 845.975 503.444 847.115 503.444 848.391C503.444 849.458 503.698 850.376 504.206 851.145C504.727 851.9 505.391 852.531 506.198 853.039C507.006 853.534 507.852 853.944 508.737 854.27C509.623 854.582 510.437 854.836 511.179 855.031L515.241 856.125C516.283 856.398 517.442 856.776 518.718 857.258C520.007 857.74 521.237 858.397 522.409 859.23C523.594 860.051 524.571 861.105 525.339 862.395C526.107 863.684 526.491 865.266 526.491 867.141C526.491 869.302 525.925 871.255 524.792 873C523.672 874.745 522.032 876.132 519.87 877.16C517.722 878.189 515.111 878.703 512.038 878.703C509.174 878.703 506.693 878.241 504.597 877.316C502.513 876.392 500.873 875.103 499.675 873.449C498.49 871.796 497.819 869.875 497.663 867.688H502.663C502.793 869.198 503.301 870.448 504.187 871.437C505.085 872.414 506.218 873.143 507.585 873.625C508.965 874.094 510.45 874.328 512.038 874.328C513.887 874.328 515.547 874.029 517.019 873.43C518.49 872.818 519.655 871.971 520.515 870.891C521.374 869.797 521.804 868.521 521.804 867.062C521.804 865.734 521.433 864.654 520.69 863.82C519.948 862.987 518.972 862.31 517.761 861.789C516.55 861.268 515.241 860.812 513.835 860.422L508.913 859.016C505.788 858.117 503.314 856.835 501.491 855.168C499.668 853.501 498.757 851.32 498.757 848.625C498.757 846.385 499.362 844.432 500.573 842.766C501.797 841.086 503.438 839.784 505.495 838.859C507.565 837.922 509.877 837.453 512.429 837.453C515.007 837.453 517.299 837.915 519.304 838.84C521.309 839.751 522.897 841.001 524.069 842.59C525.254 844.178 525.879 845.982 525.944 848H521.257Z" fill="black"/>
<path d="M163.156 984H168V1012.59C168 1015.15 167.531 1017.31 166.594 1019.1C165.656 1020.88 164.335 1022.24 162.629 1023.16C160.923 1024.08 158.911 1024.55 156.594 1024.55C154.406 1024.55 152.46 1024.15 150.754 1023.36C149.048 1022.55 147.707 1021.4 146.73 1019.92C145.754 1018.43 145.266 1016.67 145.266 1014.62H150.031C150.031 1015.76 150.311 1016.75 150.871 1017.59C151.444 1018.43 152.225 1019.08 153.215 1019.55C154.204 1020.02 155.331 1020.25 156.594 1020.25C157.987 1020.25 159.172 1019.96 160.148 1019.37C161.125 1018.79 161.867 1017.93 162.375 1016.79C162.896 1015.65 163.156 1014.25 163.156 1012.59V984ZM179.348 1024H174.27L188.957 984H193.957L208.645 1024H203.566L191.613 990.328H191.301L179.348 1024ZM181.223 1008.38H201.691V1012.67H181.223V1008.38ZM212.756 984L224.631 1017.67H225.1L236.975 984H242.053L227.365 1024H222.365L207.678 984H212.756ZM246.486 1024H241.408L256.096 984H261.096L275.783 1024H270.705L258.752 990.328H258.439L246.486 1024ZM248.361 1008.38H268.83V1012.67H248.361V1008.38ZM303.889 994C303.654 992.021 302.704 990.484 301.037 989.391C299.37 988.297 297.326 987.75 294.904 987.75C293.133 987.75 291.584 988.036 290.256 988.609C288.941 989.182 287.912 989.97 287.17 990.973C286.441 991.975 286.076 993.115 286.076 994.391C286.076 995.458 286.33 996.376 286.838 997.145C287.359 997.9 288.023 998.531 288.83 999.039C289.637 999.534 290.484 999.944 291.369 1000.27C292.255 1000.58 293.068 1000.84 293.811 1001.03L297.873 1002.12C298.915 1002.4 300.074 1002.78 301.35 1003.26C302.639 1003.74 303.869 1004.4 305.041 1005.23C306.226 1006.05 307.202 1007.11 307.971 1008.39C308.739 1009.68 309.123 1011.27 309.123 1013.14C309.123 1015.3 308.557 1017.26 307.424 1019C306.304 1020.74 304.663 1022.13 302.502 1023.16C300.354 1024.19 297.743 1024.7 294.67 1024.7C291.805 1024.7 289.325 1024.24 287.229 1023.32C285.145 1022.39 283.505 1021.1 282.307 1019.45C281.122 1017.8 280.451 1015.88 280.295 1013.69H285.295C285.425 1015.2 285.933 1016.45 286.818 1017.44C287.717 1018.41 288.85 1019.14 290.217 1019.63C291.597 1020.09 293.081 1020.33 294.67 1020.33C296.519 1020.33 298.179 1020.03 299.65 1019.43C301.122 1018.82 302.287 1017.97 303.146 1016.89C304.006 1015.8 304.436 1014.52 304.436 1013.06C304.436 1011.73 304.064 1010.65 303.322 1009.82C302.58 1008.99 301.604 1008.31 300.393 1007.79C299.182 1007.27 297.873 1006.81 296.467 1006.42L291.545 1005.02C288.42 1004.12 285.946 1002.83 284.123 1001.17C282.3 999.501 281.389 997.32 281.389 994.625C281.389 992.385 281.994 990.432 283.205 988.766C284.429 987.086 286.07 985.784 288.127 984.859C290.197 983.922 292.508 983.453 295.061 983.453C297.639 983.453 299.93 983.915 301.936 984.84C303.941 985.751 305.529 987.001 306.701 988.59C307.886 990.178 308.511 991.982 308.576 994H303.889ZM349.274 996.5H344.431C344.144 995.107 343.643 993.883 342.927 992.828C342.224 991.773 341.364 990.888 340.349 990.172C339.346 989.443 338.233 988.896 337.009 988.531C335.785 988.167 334.509 987.984 333.181 987.984C330.759 987.984 328.565 988.596 326.599 989.82C324.646 991.044 323.09 992.848 321.931 995.23C320.785 997.613 320.212 1000.54 320.212 1004C320.212 1007.46 320.785 1010.39 321.931 1012.77C323.09 1015.15 324.646 1016.96 326.599 1018.18C328.565 1019.4 330.759 1020.02 333.181 1020.02C334.509 1020.02 335.785 1019.83 337.009 1019.47C338.233 1019.1 339.346 1018.56 340.349 1017.85C341.364 1017.12 342.224 1016.23 342.927 1015.17C343.643 1014.1 344.144 1012.88 344.431 1011.5H349.274C348.91 1013.54 348.246 1015.37 347.282 1016.99C346.319 1018.6 345.121 1019.98 343.688 1021.11C342.256 1022.23 340.648 1023.08 338.864 1023.67C337.093 1024.25 335.199 1024.55 333.181 1024.55C329.769 1024.55 326.735 1023.71 324.079 1022.05C321.423 1020.38 319.333 1018.01 317.81 1014.94C316.286 1011.86 315.524 1008.22 315.524 1004C315.524 999.781 316.286 996.135 317.81 993.062C319.333 989.99 321.423 987.62 324.079 985.953C326.735 984.286 329.769 983.453 333.181 983.453C335.199 983.453 337.093 983.746 338.864 984.332C340.648 984.918 342.256 985.777 343.688 986.91C345.121 988.03 346.319 989.397 347.282 991.012C348.246 992.613 348.91 994.443 349.274 996.5ZM357.102 1024V984H370.617C373.742 984 376.307 984.534 378.313 985.602C380.318 986.656 381.802 988.108 382.766 989.957C383.729 991.806 384.211 993.909 384.211 996.266C384.211 998.622 383.729 1000.71 382.766 1002.54C381.802 1004.36 380.324 1005.79 378.332 1006.83C376.34 1007.86 373.794 1008.38 370.695 1008.38H359.758V1004H370.539C372.674 1004 374.393 1003.69 375.695 1003.06C377.01 1002.44 377.961 1001.55 378.547 1000.41C379.146 999.247 379.445 997.867 379.445 996.266C379.445 994.664 379.146 993.264 378.547 992.066C377.948 990.868 376.991 989.944 375.676 989.293C374.361 988.629 372.622 988.297 370.461 988.297H361.945V1024H357.102ZM375.93 1006.03L385.773 1024H380.148L370.461 1006.03H375.93ZM397.126 984V1024H392.282V984H397.126ZM406.838 1024V984H420.354C423.492 984 426.057 984.566 428.049 985.699C430.054 986.819 431.538 988.336 432.502 990.25C433.465 992.164 433.947 994.299 433.947 996.656C433.947 999.013 433.465 1001.15 432.502 1003.08C431.551 1005.01 430.08 1006.55 428.088 1007.69C426.096 1008.82 423.544 1009.39 420.432 1009.39H410.744V1005.09H420.275C422.424 1005.09 424.149 1004.72 425.451 1003.98C426.753 1003.24 427.697 1002.24 428.283 1000.97C428.882 999.697 429.182 998.258 429.182 996.656C429.182 995.055 428.882 993.622 428.283 992.359C427.697 991.096 426.747 990.107 425.432 989.391C424.117 988.661 422.372 988.297 420.197 988.297H411.682V1024H406.838ZM439.563 988.297V984H469.562V988.297H456.984V1024H452.141V988.297H439.563Z" fill="black"/>
<path d="M141.844 440V400H146.688V417.812H168.016V400H172.859V440H168.016V422.109H146.688V440H141.844ZM180.369 404.297V400H210.369V404.297H197.791V440H192.947V404.297H180.369ZM217.845 400H223.626L237.22 433.203H237.688L251.282 400H257.063V440H252.532V409.609H252.142L239.642 440H235.267L222.767 409.609H222.376V440H217.845V400ZM266.775 440V400H271.619V435.703H290.213V440H266.775Z" fill="black"/>
<path d="M141.844 586V546H165.828V550.297H146.688V563.812H164.031V568.109H146.688V586H141.844ZM178.968 546V586H174.124V546H178.968ZM216.023 558.5C215.594 557.185 215.027 556.007 214.324 554.965C213.634 553.91 212.807 553.012 211.844 552.27C210.893 551.527 209.813 550.961 208.602 550.57C207.391 550.18 206.063 549.984 204.617 549.984C202.247 549.984 200.092 550.596 198.152 551.82C196.212 553.044 194.669 554.848 193.523 557.23C192.378 559.613 191.805 562.536 191.805 566C191.805 569.464 192.384 572.387 193.543 574.77C194.702 577.152 196.271 578.956 198.25 580.18C200.229 581.404 202.456 582.016 204.93 582.016C207.221 582.016 209.24 581.527 210.984 580.551C212.742 579.561 214.109 578.168 215.086 576.371C216.076 574.561 216.57 572.432 216.57 569.984L218.055 570.297H206.023V566H221.258V570.297C221.258 573.591 220.555 576.456 219.148 578.891C217.755 581.326 215.828 583.214 213.367 584.555C210.919 585.883 208.107 586.547 204.93 586.547C201.388 586.547 198.276 585.714 195.594 584.047C192.924 582.38 190.841 580.01 189.344 576.937C187.859 573.865 187.117 570.219 187.117 566C187.117 562.836 187.54 559.991 188.387 557.465C189.246 554.926 190.457 552.764 192.02 550.98C193.582 549.197 195.431 547.829 197.566 546.879C199.702 545.928 202.052 545.453 204.617 545.453C206.727 545.453 208.693 545.772 210.516 546.41C212.352 547.035 213.986 547.927 215.418 549.086C216.863 550.232 218.068 551.605 219.031 553.207C219.995 554.796 220.659 556.56 221.023 558.5H216.023ZM229.554 546H235.335L248.929 579.203H249.397L262.991 546H268.772V586H264.241V555.609H263.851L251.351 586H246.976L234.476 555.609H234.085V586H229.554V546ZM280.125 586H275.047L289.734 546H294.734L309.422 586H304.344L292.391 552.328H292.078L280.125 586ZM282 570.375H302.469V574.672H282V570.375Z" fill="black"/>
<path d="M169.188 704.5C168.758 703.185 168.191 702.007 167.488 700.965C166.798 699.91 165.971 699.012 165.008 698.27C164.057 697.527 162.977 696.961 161.766 696.57C160.555 696.18 159.227 695.984 157.781 695.984C155.411 695.984 153.257 696.596 151.316 697.82C149.376 699.044 147.833 700.848 146.688 703.23C145.542 705.613 144.969 708.536 144.969 712C144.969 715.464 145.548 718.387 146.707 720.77C147.866 723.152 149.435 724.956 151.414 726.18C153.393 727.404 155.62 728.016 158.094 728.016C160.385 728.016 162.404 727.527 164.148 726.551C165.906 725.561 167.273 724.168 168.25 722.371C169.24 720.561 169.734 718.432 169.734 715.984L171.219 716.297H159.188V712H174.422V716.297C174.422 719.591 173.719 722.456 172.313 724.891C170.919 727.326 168.992 729.214 166.531 730.555C164.083 731.883 161.271 732.547 158.094 732.547C154.552 732.547 151.44 731.714 148.758 730.047C146.089 728.38 144.005 726.01 142.508 722.937C141.023 719.865 140.281 716.219 140.281 712C140.281 708.836 140.704 705.991 141.551 703.465C142.41 700.926 143.621 698.764 145.184 696.98C146.746 695.197 148.595 693.829 150.73 692.879C152.866 691.928 155.216 691.453 157.781 691.453C159.891 691.453 161.857 691.772 163.68 692.41C165.516 693.035 167.15 693.927 168.582 695.086C170.027 696.232 171.232 697.605 172.195 699.207C173.159 700.796 173.823 702.56 174.188 704.5H169.188ZM187.562 692V732H182.718V692H187.562ZM195.086 696.297V692H225.086V696.297H212.508V732H207.664V696.297H195.086Z" fill="black"/>
<rect x="687" y="251" width="1523" height="43" rx="20" fill="#60AFAB"/>
<rect x="687" y="395" width="1637" height="43" rx="20" fill="#60AFAB"/>
<rect x="687" y="541" width="1474" height="43" rx="20" fill="#60AFAB"/>
<rect x="687" y="687" width="1284" height="43" rx="20" fill="#60AFAB"/>
<rect x="687" y="833" width="1349" height="43" rx="20" fill="#60AFAB"/>
<rect x="687" y="979" width="1284" height="43" rx="20" fill="#60AFAB"/>
</svg>
